<?xml version="1.0" encoding="utf-8"?>
<!-- Generator: Adobe Illustrator 22.0.1, SVG Export Plug-In . SVG Version: 6.00 Build 0)  -->
<svg version="1.1" id="Layer_1" xmlns="http://www.w3.org/2000/svg" xmlns:xlink="http://www.w3.org/1999/xlink" x="0px" y="0px"
	 viewBox="0 0 229 229" style="enable-background:new 0 0 229 229;" xml:space="preserve">
<style type="text/css">
	.st0{fill-rule:evenodd;clip-rule:evenodd;fill:none;stroke:#fff;stroke-width:16;stroke-linecap:round;stroke-miterlimit:3;}
</style>
<path class="st0" d="M87.1,168.5c-12.9-0.3-23.8-4.1-32.8-11.4c-9.5-7.6-14.2-16.8-14.2-27.6V19.1C54.9,19,67.6,25.6,78.2,39
	C88,51.4,93.2,66.3,93.8,83.5c0,1.1,0,29.4,0.1,85c0.9,16,8.6,27.7,23.1,35.2c8.4,4.3,17.4,6.4,26.8,6.2c14.4-0.5,28.9-0.8,43.6-1
	c3,0,6,0,9.1,0c-0.9-15.9-6.9-27.1-18.1-33.7c-8.5-5.1-20.1-7.4-34.8-6.9L95,168.5 M93.9,168.5c-0.3-0.1-0.5-0.1-0.7-0.2
	c-1.6,0-3.2,0.1-4.9,0.2"/>
</svg>
